<?xml version="1.0" encoding="utf-8"?>
<!-- Generator: Adobe Illustrator 19.2.1, SVG Export Plug-In . SVG Version: 6.00 Build 0)  -->
<svg version="1.1" id="Layer_1" xmlns="http://www.w3.org/2000/svg" xmlns:xlink="http://www.w3.org/1999/xlink" x="0px" y="0px"
	 viewBox="0 0 200 57.3" style="enable-background:new 0 0 200 57.3;" xml:space="preserve">
<style type="text/css">
	.st0{fill:#1D1D1B;}
</style>
<g>
	<g>
		<path class="st0" d="M177.5,8.1c-0.3,0-0.5-0.1-0.8-0.1l-0.3,0c-0.5-0.1-0.9-0.1-1.4-0.2c-0.3,0-0.6-0.1-1-0.1
			c-0.6,0-1.1-0.1-1.7-0.1c-0.2,0-0.4,0-0.6,0c-0.5,0-0.9,0-1.3,0.1c-0.2,0-0.5,0-0.7,0.1c-0.4,0-0.7,0.1-1.1,0.1l-0.3,0l-0.3,0
			L167.5,8c-0.2,0-0.3,0.1-0.5,0.1c-0.2,0-0.5,0.1-0.7,0.1c-1.4,0.3-2.8,0.7-4,1.2c-0.6,0.2-1.2,0.5-1.8,0.8
			c-0.5,0.2-0.9,0.5-1.4,0.7c-0.4,0.2-0.8,0.5-1.2,0.8c-0.2,0.2-0.5,0.3-0.7,0.5c-0.2,0.1-0.4,0.3-0.6,0.4c-0.4,0.3-0.8,0.6-1.1,0.9
			c-0.3,0.3-0.6,0.6-0.9,0.9c-0.3,0.3-0.5,0.5-0.7,0.8c-0.2,0.3-0.5,0.5-0.7,0.8c-0.3,0.3-0.5,0.6-0.7,1c-0.2,0.2-0.3,0.5-0.5,0.7
			c-0.1,0.2-0.2,0.3-0.3,0.5c-0.6,1-1.2,2.1-1.6,3.3c-0.6,1.5-1,3-1.2,4.7c-0.1,0.5-0.1,1.1-0.2,1.6c0,0.4,0,0.8,0,1.3
			c0,0.3,0,0.6,0,1c0,0.3,0,0.7,0.1,1l0,0.2c0,0.4,0.1,0.8,0.2,1.1c0,0.1,0.1,0.3,0.1,0.4c0.1,0.3,0.1,0.6,0.2,0.9
			c0.1,0.4,0.2,0.8,0.3,1.2c0.2,0.5,0.3,0.9,0.5,1.4c0.3,0.7,0.6,1.4,1,2c0.2,0.4,0.4,0.7,0.6,1.1c0.2,0.3,0.3,0.5,0.5,0.8
			c0.2,0.3,0.5,0.7,0.7,1c0.3,0.3,0.5,0.6,0.8,0.9c0.3,0.4,0.6,0.7,1,1l0.2,0.2c0.3,0.3,0.5,0.5,0.9,0.8c0.2,0.2,0.4,0.4,0.7,0.6
			c0.2,0.2,0.5,0.4,0.7,0.6c0.3,0.2,0.6,0.4,1,0.7c0.4,0.2,0.7,0.5,1.1,0.7c0.8,0.4,1.7,0.9,2.6,1.3c0.4,0.1,0.7,0.3,1.1,0.4
			c0.4,0.1,0.8,0.3,1.2,0.4c0.7,0.2,1.4,0.4,2.2,0.5c0.6,0.1,1.3,0.2,1.9,0.3c0.7,0.1,1.3,0.1,2.1,0.2c0.3,0,0.7,0,1,0
			c0.2,0,0.3,0,0.5,0c1.3,0,2.4,0,3.5-0.1l0.2,0c0.4,0,0.9-0.1,1.3-0.1c0.6-0.1,1.2-0.2,1.8-0.3c0.4-0.1,0.7-0.1,1-0.2
			c0.5-0.1,1-0.2,1.5-0.4c0.3-0.1,0.7-0.2,1-0.3c0.4-0.1,0.8-0.2,1.1-0.4l0.3-0.1c0.2-0.1,0.4-0.1,0.7-0.3c0.4-0.1,0.8-0.3,1.3-0.5
			c0.3-0.1,0.6-0.3,1-0.4c0.3-0.1,0.6-0.3,0.9-0.4c0.1-0.1,0.3-0.1,0.4-0.2v-7.8c-0.1,0.1-0.2,0.1-0.3,0.2l-0.5,0.3
			c-0.5,0.3-1,0.6-1.6,0.9c-0.6,0.3-1.1,0.6-1.7,0.8c-1,0.5-1.9,0.8-2.8,1.2c-1.7,0.6-3.2,1-4.6,1.2c-0.2,0-0.3,0.1-0.5,0.1
			c-0.4,0.1-0.7,0.1-1.1,0.1c-0.5,0.1-1,0.1-1.5,0.1c-0.3,0-0.6,0-0.8,0c-0.5,0-1.1,0-1.7-0.1c-0.7,0-1.4-0.1-2.1-0.2
			c-1.1-0.2-2.2-0.5-3.4-0.9c-0.2-0.1-0.3-0.1-0.5-0.2c-0.1,0-0.2-0.1-0.3-0.1c-0.2-0.1-0.4-0.2-0.5-0.2c-0.4-0.2-0.8-0.4-1.1-0.6
			c-0.2-0.1-0.4-0.2-0.5-0.3c-0.2-0.1-0.4-0.2-0.5-0.4c-0.2-0.2-0.5-0.3-0.7-0.5c-0.2-0.2-0.4-0.3-0.6-0.5l-0.3-0.2l-0.1-0.1
			l-0.1-0.1l-0.1-0.1c-0.3-0.3-0.7-0.7-1-1c-0.2-0.2-0.3-0.4-0.5-0.6c-0.1-0.2-0.3-0.4-0.4-0.6c-0.1-0.2-0.2-0.4-0.3-0.5
			c-0.2-0.3-0.3-0.5-0.4-0.8c-0.1-0.2-0.2-0.5-0.3-0.7c-0.2-0.4-0.3-0.8-0.4-1.2c-0.1-0.3-0.2-0.6-0.2-0.9c-0.2-0.8-0.3-1.6-0.4-2.2
			c0-0.2,0-0.5,0-0.7c0-0.3,0-0.6,0-0.8c0-0.1,0-0.3,0-0.5c0-0.4,0.1-1,0.1-1.6c0.1-0.4,0.1-0.8,0.2-1.2c0.1-0.3,0.2-0.6,0.2-0.9
			c0.1-0.3,0.2-0.6,0.3-0.8c0.1-0.2,0.2-0.4,0.2-0.6c0.1-0.3,0.2-0.5,0.4-0.8c0.1-0.2,0.2-0.4,0.3-0.6c0.3-0.4,0.5-0.9,0.9-1.3
			c0.1-0.2,0.2-0.3,0.4-0.5c0.2-0.2,0.3-0.4,0.5-0.6c0.1-0.1,0.2-0.2,0.3-0.3c1.4-1.4,3-2.5,4.7-3.2c0.3-0.1,0.5-0.2,0.8-0.3
			c0.3-0.1,0.5-0.2,0.8-0.3c0.3-0.1,0.6-0.2,0.9-0.3c0.3-0.1,0.5-0.1,0.8-0.2c0.3-0.1,0.5-0.1,0.8-0.2c0.3-0.1,0.6-0.1,0.9-0.1
			c0.3,0,0.6-0.1,0.9-0.1c0.6,0,1.1-0.1,1.7-0.1c0.2,0,0.4,0,0.5,0c0.4,0,0.8,0,1.2,0c0.3,0,0.5,0,0.8,0.1c0.5,0,1,0.1,1.4,0.2
			c0.4,0.1,0.8,0.1,1.1,0.2c0.6,0.1,1.1,0.2,1.5,0.4c0.3,0.1,0.6,0.2,0.8,0.2c0.4,0.1,0.7,0.2,0.9,0.3c0.4,0.1,0.7,0.2,0.7,0.2
			c0.4,0.1,0.8,0.3,1.1,0.4c0.5,0.2,1,0.4,1.4,0.6c0.4,0.2,0.7,0.3,1.1,0.5c0.3,0.1,0.5,0.3,0.8,0.4c0.4,0.2,0.8,0.4,1.1,0.6
			l0.8,0.4v-7.6c0,0-0.5-0.2-1.3-0.5c-0.4-0.1-0.8-0.3-1.3-0.5c-0.3-0.1-0.6-0.2-0.9-0.3c-0.2-0.1-0.5-0.2-0.7-0.3
			c-0.3-0.1-0.6-0.2-0.9-0.3c-0.2-0.1-0.5-0.1-0.7-0.2L181.5,9c-0.2-0.1-0.5-0.1-0.7-0.2c-0.3-0.1-0.6-0.1-0.8-0.2
			c-0.2,0-0.4-0.1-0.6-0.1c-0.3-0.1-0.6-0.1-0.9-0.2C178.2,8.2,177.9,8.2,177.5,8.1L177.5,8.1z M139.5,0.2h60.5v56.9h-60.5V0.2
			L139.5,0.2z"/>
		<path class="st0" d="M93,31.6v11.2h7.3c0,0,0.1,0,0.4,0c0.2,0,0.6,0,1-0.1c0.8-0.1,1.8-0.2,2.8-0.6c0.9-0.3,1.8-0.8,2.5-1.4
			c0.3-0.3,0.5-0.5,0.7-0.8c0.6-0.9,0.7-1.8,0.7-2.3c0-0.2,0-0.4,0-0.4s0-0.1,0-0.3c0-0.2,0-0.6-0.1-1.1c-0.1-0.5-0.4-1.1-0.8-1.7
			c-0.1-0.1-0.2-0.2-0.3-0.3c-0.2-0.2-0.4-0.4-0.7-0.6c-0.4-0.3-0.9-0.5-1.3-0.8c-0.7-0.3-1.4-0.5-2.2-0.6c-0.4-0.1-0.8-0.1-1.3-0.2
			c-0.3,0-0.5,0-0.8-0.1c-0.2,0-0.5,0-0.8,0C97.4,31.6,93,31.6,93,31.6L93,31.6z"/>
		<path class="st0" d="M93,14.6v10.6h3.5c0,0,0.2,0,0.5,0c0.2,0,0.5,0,0.8,0c0.7-0.1,1.7-0.2,2.7-0.4c0.2-0.1,0.4-0.1,0.6-0.2
			c0.8-0.3,1.5-0.7,2.1-1.3c0.5-0.5,0.8-1,1-1.5c0.2-0.6,0.3-1.2,0.4-1.6c0-0.4,0-0.6,0-0.6s0-0.2,0-0.5c0-0.5-0.1-1.2-0.5-1.9
			c-0.2-0.3-0.4-0.7-0.7-1c-0.4-0.4-0.9-0.7-1.4-0.9c-1-0.4-2.1-0.6-3.1-0.7c-0.4,0-0.8,0-1.1,0C97.1,14.6,93,14.6,93,14.6L93,14.6z
			"/>
		<path class="st0" d="M85.6,8.2v41h15.4c0,0,7.5,0.2,11.7-3.9c3.4-3.4,3.1-7.3,3.1-7.3s0.2-4.1-2.9-7.2c-2.7-2.7-6.1-3.4-6.1-3.4
			s1.5-0.7,2.7-1.9c0.6-0.6,2.5-2.3,2.5-6.6c0-4.3-2.9-6.8-2.9-6.8s-3.2-3.7-10.3-3.7H85.6L85.6,8.2z M69.8,0.2h60.5v56.9H69.8V0.2
			L69.8,0.2z"/>
		<path class="st0" d="M23.3,31.6v11.2h7.3c0,0,0.1,0,0.4,0c0.2,0,0.6,0,1-0.1c0.8-0.1,1.8-0.2,2.8-0.6c0.9-0.3,1.8-0.8,2.5-1.4
			c0.3-0.3,0.5-0.5,0.6-0.8c0.6-0.9,0.7-1.8,0.7-2.3c0-0.2,0-0.4,0-0.4s0-0.1,0-0.3c0-0.2,0-0.6-0.1-1.1c-0.1-0.5-0.4-1.1-0.8-1.7
			c-0.1-0.1-0.2-0.2-0.3-0.3c-0.2-0.2-0.4-0.4-0.7-0.6c-0.4-0.3-0.9-0.5-1.3-0.8c-0.7-0.3-1.4-0.5-2.2-0.6c-0.4-0.1-0.8-0.1-1.3-0.2
			c-0.3,0-0.5,0-0.8-0.1c-0.2,0-0.5,0-0.8,0C27.8,31.6,23.3,31.6,23.3,31.6L23.3,31.6z"/>
		<path class="st0" d="M23.3,14.6v10.6h3.5c0,0,0.2,0,0.5,0c0.2,0,0.5,0,0.8,0c0.7-0.1,1.7-0.2,2.7-0.4c0.2-0.1,0.4-0.1,0.6-0.2
			c0.8-0.3,1.5-0.7,2.1-1.3c0.5-0.5,0.8-1,1-1.5c0.2-0.6,0.3-1.2,0.4-1.6c0-0.4,0-0.6,0-0.6s0-0.2,0-0.5c0-0.5-0.1-1.2-0.5-1.9
			c-0.2-0.3-0.4-0.7-0.7-1c-0.4-0.4-0.9-0.7-1.4-0.9c-1-0.4-2.1-0.6-3.1-0.7c-0.4,0-0.8,0-1.1,0C27.5,14.6,23.3,14.6,23.3,14.6
			L23.3,14.6z"/>
		<path class="st0" d="M16,8.2v41h15.4c0,0,7.5,0.2,11.7-3.9c3.4-3.4,3.1-7.3,3.1-7.3s0.2-4.1-2.9-7.2c-2.7-2.7-6.1-3.4-6.1-3.4
			s1.5-0.7,2.7-1.9c0.6-0.6,2.5-2.3,2.5-6.6c0-4.3-2.9-6.8-2.9-6.8s-3.2-3.7-10.3-3.7H16L16,8.2z M0.1,0.2h60.5v56.9H0.1V0.2
			L0.1,0.2z"/>
	</g>
</g>
<g>
</g>
<g>
</g>
<g>
</g>
<g>
</g>
<g>
</g>
<g>
</g>
</svg>
